<svg version="1.1" xmlns="http://www.w3.org/2000/svg" xmlns:xlink="http://www.w3.org/1999/xlink" width="512.000000pt" height="512.000000pt" viewBox="0,0,256,256"><g fill="#118dff" fill-rule="nonzero" stroke="none" stroke-width="1" stroke-linecap="butt" stroke-linejoin="miter" stroke-miterlimit="10" stroke-dasharray="" stroke-dashoffset="0" font-family="none" font-weight="none" font-size="none" text-anchor="none" style="mix-blend-mode: normal"><g transform="translate(-0.09427,0.07916) scale(0.5,0.5)"><g transform="translate(0,512) scale(0.1,-0.1)"><path d="M2415,4954c-218,-31 -356,-70 -511,-144c-257,-123 -497,-340 -642,-580l-39,-65l-129,-7c-75,-4 -161,-15 -205,-27c-352,-92 -616,-360 -706,-717c-26,-103 -23,-343 5,-445c96,-351 351,-607 701,-701c63,-17 115,-21 314,-25l237,-5v-135c0,-77 5,-153 12,-177c23,-78 135,-166 212,-166c14,0 16,-19 16,-160v-160h-442h-443l-34,65c-37,72 -68,103 -145,143c-43,22 -64,26 -136,26c-72,0 -93,-4 -136,-26c-75,-40 -107,-70 -145,-140c-31,-58 -34,-70 -33,-148c0,-72 4,-93 26,-136c40,-75 70,-107 140,-145c58,-31 70,-34 148,-34c78,0 90,3 148,34c72,39 105,74 139,149l24,52h500h500l24,25c25,24 25,24 25,240v215h80h80v-320v-320h-335h-336l-24,-25c-24,-23 -25,-29 -25,-162v-138l-65,-34c-72,-37 -103,-68 -143,-145c-22,-43 -26,-64 -26,-136c-1,-78 2,-90 33,-148c36,-66 76,-103 151,-143c37,-19 61,-23 130,-23c78,-1 90,2 148,33c66,36 103,76 143,151c19,37 23,61 23,130c1,78 -2,90 -33,148c-38,70 -82,112 -153,144l-48,22v83v83h335h336l24,25l25,24v376v375h160h160v-402v-403l-65,-34c-72,-37 -103,-68 -143,-145c-22,-43 -26,-64 -26,-136c0,-72 4,-93 26,-136c40,-75 70,-107 140,-145c58,-31 70,-34 148,-34c78,0 90,3 148,34c70,38 100,70 140,145c22,43 26,64 26,136c1,78 -2,90 -33,148c-38,70 -82,112 -153,144l-48,22v403v403h160h160v-375v-376l25,-24l24,-25h336h335v-82v-83l-65,-34c-72,-37 -103,-68 -143,-145c-22,-43 -26,-64 -26,-136c-1,-78 2,-90 33,-148c36,-66 76,-103 151,-143c37,-19 61,-23 130,-23c78,-1 90,2 148,33c66,36 103,76 143,151c19,37 23,61 23,130c1,78 -2,90 -33,148c-38,70 -82,112 -153,144l-48,22v138c0,134 -1,140 -25,163l-24,25h-336h-335v320v320h80h80v-215c0,-216 0,-216 25,-240l24,-25h498h498l34,-65c37,-72 68,-103 145,-143c43,-22 64,-26 136,-26c78,-1 90,2 148,33c70,38 100,70 140,145c22,43 26,64 26,136c1,78 -2,90 -33,148c-38,70 -70,100 -145,140c-43,22 -64,26 -136,26c-72,0 -93,-4 -136,-26c-77,-40 -108,-71 -145,-143l-34,-65h-442h-443v160c0,141 2,160 16,160c77,0 189,88 212,166c7,24 12,100 12,178v136h274c297,0 367,8 491,55c334,126 552,484 508,834c-53,421 -405,723 -826,709l-99,-3l-28,87c-70,220 -189,408 -369,589c-226,225 -471,358 -780,420c-92,19 -366,33 -436,23zM2800,4773c415,-69 781,-343 976,-731c43,-86 97,-241 109,-314c8,-49 48,-82 90,-74c138,24 190,28 268,16c286,-41 498,-249 544,-533c15,-88 15,-106 0,-194c-34,-209 -156,-377 -341,-469c-129,-64 -194,-73 -511,-74h-260l-22,40l-23,39l25,47c25,46 25,51 25,274c0,222 -1,228 -25,274l-24,46l25,47c25,48 25,48 22,285l-3,236l-30,43c-17,24 -53,57 -80,74l-48,30h-957h-957l-49,-30c-30,-19 -60,-49 -79,-79l-30,-49l-3,-225l-3,-225l26,-53l27,-54l-26,-52c-26,-51 -26,-56 -26,-268c0,-213 0,-217 26,-269l27,-53l-21,-37l-21,-36l-218,1c-234,1 -296,10 -418,61c-232,97 -413,312 -471,560c-20,86 -20,260 0,346c69,297 306,534 603,603c43,10 107,15 182,13c64,-1 128,-1 143,-2c38,0 49,12 102,106c225,400 630,662 1076,696c122,9 231,4 350,-16zM3468,3674c44,-12 52,-49 52,-233c0,-182 -6,-211 -47,-230c-17,-8 -283,-11 -913,-11c-630,0 -896,3 -913,11c-41,19 -47,49 -47,229c0,177 6,210 44,228c23,12 1783,17 1824,6zM3468,3034c44,-12 52,-49 52,-233c0,-182 -6,-211 -47,-230c-17,-8 -283,-11 -913,-11c-630,0 -896,3 -913,11c-41,19 -47,49 -47,229c0,177 6,210 44,228c23,12 1783,17 1824,6zM3468,2394c44,-12 52,-49 52,-233c0,-182 -6,-211 -47,-230c-34,-16 -1792,-16 -1826,0c-41,19 -47,49 -47,229c0,177 6,210 44,228c23,12 1783,17 1824,6zM547,1504c57,-28 87,-77 88,-144c0,-46 -5,-63 -27,-92c-55,-72 -153,-87 -223,-34c-149,114 -7,350 162,270zM4707,1504c57,-28 87,-77 88,-144c0,-46 -5,-63 -27,-92c-55,-72 -153,-87 -223,-34c-149,114 -7,350 162,270zM2654,767c47,-37 70,-89 62,-145c-11,-80 -80,-142 -158,-142c-76,1 -157,82 -158,158c0,65 55,139 115,155c42,12 105,-1 139,-26zM1454,607c47,-37 70,-89 62,-145c-11,-80 -80,-142 -158,-142c-76,1 -157,82 -158,158c0,65 55,139 115,155c42,12 105,-1 139,-26zM3854,607c47,-37 70,-89 62,-145c-11,-80 -80,-142 -158,-142c-76,1 -157,82 -158,158c0,65 55,139 115,155c42,12 105,-1 139,-26z"></path><path d="M1760,3440v-80h480h480v80v80h-480h-480z"></path><path d="M2880,3440v-80h80h80v80v80h-80h-80z"></path><path d="M3200,3440v-80h80h80v80v80h-80h-80z"></path><path d="M1760,2800v-80h480h480v80v80h-480h-480z"></path><path d="M2880,2800v-80h80h80v80v80h-80h-80z"></path><path d="M3200,2800v-80h80h80v80v80h-80h-80z"></path><path d="M1760,2160v-80h480h480v80v80h-480h-480z"></path><path d="M2880,2160v-80h80h80v80v80h-80h-80z"></path><path d="M3200,2160v-80h80h80v80v80h-80h-80z"></path></g></g></g></svg>